<?xml version="1.0" encoding="UTF-8"?>
<svg id="Layer_1" xmlns="http://www.w3.org/2000/svg" version="1.1" viewBox="0 0 978.57 1080">
  <!-- Generator: Adobe Illustrator 29.1.0, SVG Export Plug-In . SVG Version: 2.1.0 Build 142)  -->
  <defs>
    <style>
      .st0 {
        fill: #ffc300;
      }

      .st1 {
        fill: #fff;
      }

      .st2 {
        fill: #003566;
      }
    </style>
  </defs>
  <rect id="bg" class="st2" width="978.57" height="1080"/>
  <g>
    <g id="typo_2">
      <path class="st1" d="M203.69,1037.46c0-4.32-1.52-7.73-4.55-10.25-3.03-2.52-8.58-4.91-16.64-7.17-8.06-2.26-13.95-4.74-17.66-7.41-5.28-3.78-7.92-8.74-7.92-14.88s2.45-10.8,7.36-14.53c4.91-3.73,11.18-5.59,18.81-5.59,5.17,0,9.8,1,13.89,3,4.08,2,7.25,4.78,9.5,8.35,2.25,3.57,3.37,7.54,3.37,11.93h-6.64c0-5.33-1.82-9.61-5.46-12.85-3.64-3.24-8.53-4.86-14.66-4.86s-10.7,1.33-14.23,3.99c-3.53,2.66-5.3,6.14-5.3,10.42,0,3.97,1.59,7.2,4.76,9.7,3.18,2.5,8.26,4.71,15.25,6.62,6.99,1.91,12.29,3.89,15.89,5.94,3.6,2.05,6.31,4.5,8.13,7.36,1.82,2.85,2.73,6.22,2.73,10.11,0,6.14-2.46,11.06-7.36,14.77-4.91,3.71-11.37,5.56-19.4,5.56-5.49,0-10.53-.98-15.12-2.94-4.58-1.96-8.06-4.71-10.44-8.24-2.37-3.53-3.56-7.58-3.56-12.15h6.58c0,5.49,2.05,9.83,6.15,13,4.1,3.18,9.56,4.76,16.37,4.76,6.06,0,10.93-1.34,14.61-4.01,3.67-2.68,5.51-6.22,5.51-10.65Z"/>
      <path class="st1" d="M230.18,1056.62h-6.42v-82.19h6.42v82.19Z"/>
      <path class="st1" d="M269.99,1057.69c-4.92,0-9.37-1.21-13.35-3.64-3.98-2.43-7.07-5.81-9.28-10.14-2.21-4.33-3.32-9.19-3.32-14.58v-2.3c0-5.56,1.08-10.58,3.24-15.03,2.16-4.46,5.16-7.96,9.02-10.52,3.85-2.55,8.03-3.83,12.52-3.83,7.03,0,12.6,2.4,16.72,7.2,4.12,4.8,6.18,11.35,6.18,19.67v3.59h-41.31v1.23c0,6.56,1.88,12.03,5.64,16.4s8.5,6.56,14.21,6.56c3.42,0,6.45-.62,9.07-1.87,2.62-1.25,5-3.25,7.14-5.99l4.01,3.05c-4.71,6.81-11.54,10.22-20.49,10.22ZM268.82,1003.11c-4.82,0-8.88,1.77-12.17,5.3-3.3,3.53-5.31,8.28-6.02,14.23h34.73v-.7c-.18-5.57-1.77-10.1-4.76-13.59-3-3.5-6.92-5.24-11.77-5.24Z"/>
      <path class="st1" d="M326.61,1057.69c-4.92,0-9.37-1.21-13.35-3.64-3.98-2.43-7.07-5.81-9.28-10.14-2.21-4.33-3.32-9.19-3.32-14.58v-2.3c0-5.56,1.08-10.58,3.24-15.03,2.16-4.46,5.16-7.96,9.02-10.52,3.85-2.55,8.03-3.83,12.52-3.83,7.03,0,12.6,2.4,16.72,7.2,4.12,4.8,6.18,11.35,6.18,19.67v3.59h-41.31v1.23c0,6.56,1.88,12.03,5.64,16.4s8.5,6.56,14.21,6.56c3.42,0,6.45-.62,9.07-1.87,2.62-1.25,5-3.25,7.14-5.99l4.01,3.05c-4.71,6.81-11.54,10.22-20.49,10.22ZM325.43,1003.11c-4.82,0-8.88,1.77-12.17,5.3-3.3,3.53-5.31,8.28-6.02,14.23h34.73v-.7c-.18-5.57-1.77-10.1-4.76-13.59-3-3.5-6.92-5.24-11.77-5.24Z"/>
      <path class="st1" d="M407.36,1028.26c0,9.02-2,16.19-5.99,21.48-4,5.3-9.35,7.95-16.05,7.95-7.92,0-13.98-2.78-18.19-8.35v29.54h-6.37v-80.16h5.94l.32,8.19c4.17-6.17,10.22-9.26,18.14-9.26,6.92,0,12.35,2.62,16.3,7.87,3.94,5.24,5.91,12.52,5.91,21.83v.91ZM400.93,1027.13c0-7.39-1.52-13.22-4.55-17.5-3.03-4.28-7.26-6.42-12.68-6.42-3.92,0-7.29.95-10.11,2.84-2.82,1.89-4.98,4.64-6.48,8.24v27.77c1.53,3.32,3.73,5.85,6.58,7.6,2.85,1.75,6.22,2.62,10.12,2.62,5.38,0,9.59-2.15,12.6-6.45,3.01-4.3,4.52-10.53,4.52-18.7Z"/>
      <path class="st1" d="M484.09,978.7h6.64v54.74c0,7.38-2.13,13.27-6.39,17.66-4.26,4.39-9.98,6.58-17.15,6.58-7.56,0-13.38-1.98-17.44-5.94-4.07-3.96-6.1-9.49-6.1-16.59h6.58c0,5.64,1.48,9.87,4.44,12.71,2.96,2.84,7.13,4.25,12.52,4.25,4.96,0,9-1.64,12.12-4.92,3.12-3.28,4.72-7.74,4.79-13.38v-55.12Z"/>
      <path class="st1" d="M504.96,1026.81c0-5.57,1.08-10.58,3.24-15.04,2.16-4.46,5.21-7.93,9.15-10.41s8.41-3.72,13.4-3.72c7.71,0,13.95,2.7,18.73,8.11,4.78,5.4,7.17,12.57,7.17,21.48v1.34c0,5.6-1.08,10.64-3.24,15.12-2.16,4.48-5.2,7.93-9.12,10.35-3.92,2.43-8.4,3.64-13.43,3.64-7.67,0-13.91-2.7-18.7-8.11-4.8-5.4-7.2-12.57-7.2-21.48v-1.28ZM511.38,1028.58c0,6.92,1.79,12.6,5.38,17.04,3.58,4.44,8.28,6.66,14.1,6.66s10.46-2.22,14.05-6.66c3.59-4.44,5.38-10.3,5.38-17.58v-1.23c0-4.42-.82-8.47-2.46-12.15-1.64-3.67-3.94-6.52-6.9-8.54-2.96-2.01-6.35-3.02-10.17-3.02-5.71,0-10.36,2.24-13.97,6.71-3.6,4.48-5.41,10.34-5.41,17.58v1.18Z"/>
      <path class="st1" d="M607.11,1049.28c-3.85,5.6-10.01,8.4-18.46,8.4-6.17,0-10.86-1.79-14.07-5.38s-4.85-8.89-4.92-15.92v-37.67h6.37v36.87c0,11.02,4.46,16.54,13.38,16.54s15.14-3.83,17.61-11.51v-41.9h6.42v57.9h-6.21l-.11-7.33Z"/>
      <path class="st1" d="M656.82,1004.17c-1.35-.25-2.8-.38-4.33-.38-3.99,0-7.37,1.12-10.14,3.34-2.77,2.23-4.74,5.47-5.91,9.71v39.76h-6.37v-57.9h6.26l.11,9.2c3.39-6.85,8.83-10.28,16.32-10.28,1.78,0,3.19.23,4.23.7l-.16,5.83Z"/>
      <path class="st1" d="M673.04,998.72l.21,9.9c2.18-3.57,4.89-6.29,8.13-8.16,3.25-1.87,6.83-2.81,10.75-2.81,6.21,0,10.83,1.75,13.86,5.25,3.03,3.5,4.57,8.74,4.6,15.73v37.99h-6.37v-38.05c-.04-5.17-1.13-9.02-3.29-11.56-2.16-2.53-5.61-3.8-10.35-3.8-3.96,0-7.47,1.24-10.52,3.72-3.05,2.48-5.31,5.83-6.77,10.03v39.65h-6.37v-57.9h6.1Z"/>
      <path class="st1" d="M749.56,1057.69c-4.92,0-9.37-1.21-13.35-3.64-3.98-2.43-7.07-5.81-9.28-10.14-2.21-4.33-3.32-9.19-3.32-14.58v-2.3c0-5.56,1.08-10.58,3.24-15.03,2.16-4.46,5.16-7.96,9.02-10.52,3.85-2.55,8.03-3.83,12.52-3.83,7.03,0,12.6,2.4,16.72,7.2,4.12,4.8,6.18,11.35,6.18,19.67v3.59h-41.31v1.23c0,6.56,1.88,12.03,5.64,16.4s8.5,6.56,14.21,6.56c3.42,0,6.45-.62,9.07-1.87,2.62-1.25,5-3.25,7.14-5.99l4.01,3.05c-4.71,6.81-11.54,10.22-20.49,10.22ZM748.38,1003.11c-4.82,0-8.88,1.77-12.17,5.3-3.3,3.53-5.31,8.28-6.02,14.23h34.73v-.7c-.18-5.57-1.77-10.1-4.76-13.59-3-3.5-6.92-5.24-11.77-5.24Z"/>
      <path class="st1" d="M801.41,1047.41l16.91-48.69h6.9l-24.72,67.75-1.28,3c-3.18,7.03-8.08,10.54-14.72,10.54-1.53,0-3.18-.25-4.92-.75l-.05-5.3,3.32.32c3.14,0,5.68-.78,7.62-2.33,1.94-1.55,3.59-4.22,4.95-8l2.84-7.81-21.83-57.42h7.01l17.98,48.69Z"/>
    </g>
    <g>
      <path class="st0" d="M155.82,760.32c-6.12,0-11.22,6.12-11.22,16.99v101.96c0,10.88,4.59,16.99,10.71,16.99v2.89h-45.37v-2.89c6.29,0,10.88-6.12,10.88-16.99v-97.03l-44.86,116.91h-11.38l-45.37-118.27v98.39c0,10.88,8.16,16.99,14.27,16.99v2.89H.68v-2.89c6.12,0,14.27-6.12,14.27-16.99v-107.9c-4.25-7.14-10.03-11.05-14.95-11.05v-2.89h33.99l45.88,119.63,45.88-119.63h30.08v2.89Z"/>
      <path class="st0" d="M263.38,806.71v2.89c-6.12,0-14.78,6.12-19.03,16.99l-46.73,121.84h-22.09v-2.89c6.8-3.4,22.43-10.71,29.91-29.74l6.29-16.65h-11.22l-27.87-72.56c-4.08-10.88-11.56-16.99-17.67-16.99v-2.89h44.52v2.89c-6.12,0-7.31,6.12-3.06,16.99l21.75,56.25,21.75-56.25c4.25-10.88-2.21-16.99-8.33-16.99v-2.89h31.78Z"/>
      <path class="st0" d="M338.99,820.65c0,41.97,20.22,67.97,58.12,67.97,20.05,0,36.19-7.31,47.75-30.42h2.89c-9.52,26.34-31.95,42.31-64.06,42.31-42.82,0-68.48-28.55-68.48-72.39s26.51-72.39,69.84-72.39c29.57,0,50.81,14.27,58.29,20.9l-5.78,23.28h-3.91c-1.53-34.84-33.31-39.93-44.35-39.93-34.66,0-50.3,24.47-50.3,60.66Z"/>
      <path class="st0" d="M531.68,870.78c-7.48,16.99-22.43,28.38-39.93,28.38s-27.36-10.54-27.19-28.38v-44.18c0-10.88-5.1-16.99-11.22-16.99v-2.89l35.01-6.8v70.86c0,12.57,3.91,18.18,13.08,18.18,15.12,0,27.7-15.12,30.25-36.54v-25.83c0-10.88-5.1-16.99-11.22-16.99v-2.89l35.01-6.8v72.56c0,10.88,5.1,16.99,11.22,16.99v2.89l-35.01,6.8v-28.38Z"/>
      <path class="st0" d="M704.49,887.93c-3.55,2.22-7.64,3.41-12.06,3.41-9.19,0-14.77-8-14.77-20.57v-61.18h15.95v-2.88h-15.95v-24.8c0-.19,0-.36-.02-.56l-2.88.56c0,16.49-20.74,24.8-32.63,24.8v2.88h11.72v61.18c0,17.84,10.37,28.38,27.19,28.38,9.35,0,17.84-3.21,24.97-8.65l-1.52-2.56ZM594.72,820.64c0-9.33,4.42-16.46,14.79-16.46,11.22,0,22.43,8.32,22.43,23.28h3.05l2.2-18.71c.07-.41.15-.8.22-1.21l-3.43-1.84c-8.68-3.92-15.47-5.78-25.16-5.78-26.15,0-37.88,13.59-37.88,29.9,0,32.29,46.89,30.24,46.89,55.57,0,6.79-4.59,10.88-14.09,10.88-13.61,0-30.1-8.34-30.1-23.28h-3.05l-2.56,20.04c10.37,5.1,22.6,7.47,33.99,7.47,24.32,0,39.59-10.68,39.59-25.31,0-29.39-46.9-26.35-46.9-54.56Z"/>
      <path class="st0" d="M752.07,799.91c29.91,0,47.75,20.05,47.75,50.3s-17.84,50.3-47.75,50.3-47.58-19.88-47.58-50.3,17.84-50.3,47.58-50.3ZM726.58,849.2c0,22.77,7.14,47.07,26.51,47.07s24.64-21.92,24.64-43.84c0-23.28-7.31-48.26-26.34-48.26s-24.81,22.77-24.81,45.03Z"/>
      <path class="st0" d="M839.57,827.44c6.63-16.48,19.71-27.53,37.05-27.53s26.68,10.03,27.19,27.19c6.63-16.31,19.71-27.19,36.88-27.19s27.19,10.54,27.19,28.38v50.98c0,10.88,4.59,16.99,10.71,16.99v2.89h-45.2v-2.89c6.12,0,10.71-6.12,10.71-16.99v-50.98c0-12.58-4.08-18.18-13.25-18.18-15.46,0-25.66,16.14-27.02,38.74v30.42c0,10.88,4.59,16.99,10.71,16.99v2.89h-45.2v-2.89c6.12,0,10.71-6.12,10.71-16.99v-50.98c0-12.58-4.08-18.18-13.25-18.18-16.82,0-27.19,18.69-27.19,44.18v24.98c0,10.88,4.59,16.99,10.71,16.99v2.89h-45.2v-2.89c6.12,0,10.71-6.12,10.71-16.99v-52.68c0-10.88-5.1-16.99-11.22-16.99v-2.89l35.01-6.8v27.53Z"/>
    </g>
    <g id="moon">
      <path class="st1" d="M824.36,336.1c0,185.62-150.48,336.1-336.1,336.1s-336.1-150.48-336.1-336.1S302.64,0,488.26,0c20.39,0,40.36,1.82,59.75,5.32-4.38-.21-8.76-.31-13.19-.31-158.35,0-286.72,128.37-286.72,286.67s128.37,286.72,286.72,286.72,286.3-127.95,286.72-285.94c1.88,14.29,2.82,28.83,2.82,43.64Z"/>
      <path class="st0" d="M529.35,176.44c5.74,35.72,7.06,71.6,7.25,107.62-.16,36.02-1.48,71.9-7.25,107.62-5.77-35.72-7.09-71.6-7.25-107.62.19-36.02,1.51-71.9,7.25-107.62h0Z"/>
      <path class="st0" d="M421.73,284.06c35.72-5.74,71.6-7.06,107.62-7.25,36.02.16,71.9,1.48,107.62,7.25-35.72,5.77-71.6,7.09-107.62,7.25-36.02-.19-71.9-1.51-107.62-7.25h0Z"/>
      <path class="st1" d="M698.28,69.88c3.31,28.37,3.34,57.12,0,85.49-3.34-28.37-3.31-57.11,0-85.49h0Z"/>
      <path class="st1" d="M655.54,112.62c28.37-3.31,57.12-3.34,85.49,0-28.37,3.34-57.11,3.31-85.49,0h0Z"/>
      <path class="st0" d="M784.63,281.56c0,76.7-36.71,144.79-93.49,187.7,48.13-42.76,78.47-105.11,78.47-174.57,0-61.26-18.11-111.25-56.69-152.91l-2.24-2.35v-13.56h15.33l1.36,1.46c38.95,41.92,57.26,92.43,57.26,154.22Z"/>
      <path class="st0" d="M684.28,85.5v13.87h-15.33c-.52-.42-1.04-.78-1.62-1.2-38.01-26.85-81.05-36.85-131.11-36.85-69.45,0-131.81,30.35-174.57,78.47,42.91-56.78,111.01-93.49,187.7-93.49,50.58,0,94.03,10.21,132.41,37.42.83.57,1.67,1.15,2.5,1.77Z"/>
    </g>
  </g>
</svg>